<svg xmlns="http://www.w3.org/2000/svg" fill="none" viewBox="0 29.052000000000003 45.51351351351351 24.948" style="max-height: 500px" width="45.51351351351351" height="24.948">
<path fill="#403A34" d="M7.816 53.544C3.944 53.544 0.872 51.752 1.896 45.896L3.656 36.008C4.2 32.904 5.864 29.736 10.76 29.736C14.92 29.736 17.736 31.432 16.84 36.488L16.52 38.248L11.848 39.112L12.36 36.072C12.744 33.928 11.848 33.224 10.696 33.224C8.968 33.224 8.488 34.536 8.232 35.976L6.376 46.6C5.896 49.256 6.824 50.024 8.04 50.024C9.576 50.024 10.088 48.872 10.408 47.176L11.016 43.784L15.368 44.712L14.92 47.336C14.376 50.536 12.808 53.544 7.816 53.544ZM16.4733 53L20.4733 30.28H25.2413L27.0013 41.32C27.1933 42.44 27.3533 43.592 27.4173 44.712H27.4813C27.7053 43.048 27.9293 41.384 28.2173 39.688L29.8813 30.28H33.7853L29.7853 53H25.4653L23.5133 41.032C23.2893 39.688 23.1293 38.6 23.0653 37.448H22.9693C22.7773 38.92 22.6493 40.328 22.3613 41.864L20.3773 53H16.4733Z"/>
<ellipse fill="#403A34" ry="6.5" rx="5.5" cy="46.5" cx="38.5"/>
</svg>