<svg width="310" height="170" viewBox="0 0 310 170" fill="none" xmlns="http://www.w3.org/2000/svg">
<rect x="0.5" y="58.5" width="308.5" height="53" fill="#B5ACA3" fill-opacity="0.2" stroke="#403A34"/>
<path d="M91.56 91.768H98.04V94H88.752V76.96H97.872V79.192H91.56V84.136H97.488V86.368H91.56V91.768ZM99.2389 94L102.791 87.736L99.5269 82H102.431L103.895 85C104.135 85.48 104.303 85.864 104.399 86.224H104.447C104.519 85.864 104.711 85.456 104.927 85L106.271 82H109.175L105.959 87.808L109.487 94H106.535L104.855 90.688C104.591 90.184 104.399 89.752 104.351 89.464H104.303C104.231 89.752 104.039 90.16 103.775 90.688L102.095 94H99.2389ZM115.003 94.288C112.003 94.288 110.059 92.344 110.059 88C110.059 83.776 111.811 81.712 115.027 81.712C117.619 81.712 119.371 83.2 119.515 86.128L116.851 86.536C116.779 84.568 116.083 83.776 114.955 83.776C113.611 83.776 112.819 84.76 112.819 88C112.819 91.192 113.611 92.176 115.003 92.176C116.131 92.176 116.827 91.336 116.875 89.344L119.539 89.848C119.395 92.776 117.499 94.288 115.003 94.288ZM124.985 94.288C122.489 94.288 121.649 92.656 121.649 90.184V82H124.313V89.896C124.313 91.408 124.889 92.152 125.969 92.152C127.241 92.152 128.033 90.976 128.033 89.08V82H130.673V94H128.153V91.936C127.697 93.376 126.521 94.288 124.985 94.288ZM137.585 94.264C135.185 94.264 133.337 93.16 132.809 90.928L134.945 89.992C135.257 91.408 136.313 92.272 137.633 92.272C138.809 92.272 139.553 91.696 139.553 90.76C139.553 89.848 139.193 89.416 138.041 89.128L136.241 88.672C134.441 88.216 133.289 87.088 133.289 85.288C133.289 83.104 135.089 81.712 137.633 81.712C139.985 81.712 141.665 82.72 142.001 84.712L139.937 85.528C139.649 84.184 138.785 83.608 137.609 83.608C136.481 83.608 135.809 84.16 135.809 85.096C135.809 85.912 136.265 86.296 137.345 86.584L139.145 87.064C141.185 87.592 142.025 88.696 142.025 90.568C142.025 92.608 140.345 94.264 137.585 94.264ZM144.366 94V82H146.982V94H144.366ZM144.246 80.056V77.104H147.078V80.056H144.246ZM152.29 94L148.762 82H151.546L153.346 89.632C153.514 90.28 153.634 90.88 153.706 91.48H153.802C153.874 90.88 153.994 90.28 154.138 89.632L155.962 82H158.746L155.218 94H152.29ZM164.645 94.288C161.693 94.288 159.629 92.584 159.629 88C159.629 83.488 161.717 81.712 164.549 81.712C167.549 81.712 169.229 83.656 169.229 87.04V88.576H162.293C162.341 91.048 163.085 92.176 164.693 92.176C165.821 92.176 166.637 91.576 166.901 90.064L169.181 90.76C168.773 93.064 167.021 94.288 164.645 94.288ZM162.293 86.872H166.565C166.565 84.4 165.845 83.512 164.525 83.512C163.277 83.512 162.341 84.208 162.293 86.872ZM182.679 94.408C178.575 94.408 176.247 91.696 176.247 85.48C176.247 79.264 178.575 76.552 182.679 76.552C186.759 76.552 189.087 79.264 189.087 85.48C189.087 91.696 186.759 94.408 182.679 94.408ZM179.175 85.48C179.175 90.328 180.447 92.104 182.679 92.104C184.911 92.104 186.135 90.328 186.135 85.48C186.135 80.632 184.911 78.856 182.679 78.856C180.447 78.856 179.175 80.632 179.175 85.48ZM197.184 82V83.92H194.76V94H192.12V83.92H190.392V82H192.12V80.152C192.12 77.8 193.416 76.456 195.744 76.456C196.272 76.456 196.752 76.504 197.184 76.6V78.712C196.848 78.664 196.536 78.616 196.272 78.616C195.216 78.616 194.76 79.144 194.76 80.32V82H197.184ZM205.036 82V83.92H202.612V94H199.972V83.92H198.244V82H199.972V80.152C199.972 77.8 201.268 76.456 203.596 76.456C204.124 76.456 204.604 76.504 205.036 76.6V78.712C204.7 78.664 204.388 78.616 204.124 78.616C203.068 78.616 202.612 79.144 202.612 80.32V82H205.036ZM211.028 94.288C208.076 94.288 206.012 92.584 206.012 88C206.012 83.488 208.1 81.712 210.932 81.712C213.932 81.712 215.612 83.656 215.612 87.04V88.576H208.676C208.724 91.048 209.468 92.176 211.076 92.176C212.204 92.176 213.02 91.576 213.284 90.064L215.564 90.76C215.156 93.064 213.404 94.288 211.028 94.288ZM208.676 86.872H212.948C212.948 84.4 212.228 83.512 210.908 83.512C209.66 83.512 208.724 84.208 208.676 86.872ZM220.548 84.808C221.004 83.08 222.036 81.712 223.812 81.712C223.908 81.712 223.98 81.712 224.1 81.736V84.424C223.956 84.424 223.812 84.4 223.62 84.4C222.636 84.4 221.988 84.784 221.532 85.336C220.836 86.152 220.74 87.352 220.74 88.528V94H218.1V82H220.548V84.808ZM229.742 94.264C227.342 94.264 225.494 93.16 224.966 90.928L227.102 89.992C227.414 91.408 228.47 92.272 229.79 92.272C230.966 92.272 231.71 91.696 231.71 90.76C231.71 89.848 231.35 89.416 230.198 89.128L228.398 88.672C226.598 88.216 225.446 87.088 225.446 85.288C225.446 83.104 227.246 81.712 229.79 81.712C232.142 81.712 233.822 82.72 234.158 84.712L232.094 85.528C231.806 84.184 230.942 83.608 229.766 83.608C228.638 83.608 227.965 84.16 227.965 85.096C227.965 85.912 228.422 86.296 229.502 86.584L231.302 87.064C233.342 87.592 234.182 88.696 234.182 90.568C234.182 92.608 232.502 94.264 229.742 94.264Z" fill="#403A34"/>
</svg>
