<svg width="310" height="170" viewBox="0 0 310 170" fill="none" xmlns="http://www.w3.org/2000/svg">
<rect x="0.5" y="58.5" width="308.5" height="53" fill="#B5ACA3" fill-opacity="0.2" stroke="#403A34"/>
<path d="M126.528 94.408C122.856 94.408 120.888 91.432 120.888 85.408C120.888 79.336 123.144 76.552 127.272 76.552C131.112 76.552 132.816 78.856 133.032 81.952L130.176 82.456C130.008 80.272 129.288 78.76 127.224 78.76C124.968 78.76 123.816 80.608 123.816 85.408C123.816 90.04 124.872 92.152 127.272 92.152C129.744 92.152 130.416 90.064 130.416 87.688V87.016H127.032V84.808H133.128V94H131.04L130.896 91.216C130.296 93.184 128.808 94.408 126.528 94.408ZM138.615 94.288C136.455 94.288 135.183 92.92 135.183 90.832C135.183 89.584 135.687 88.696 136.455 88.096C137.103 87.568 138.111 87.184 139.575 86.944L141.783 86.56V85.744C141.783 84.232 141.255 83.608 140.079 83.608C138.663 83.608 138.207 84.496 138.183 85.912H135.471C135.519 82.792 137.583 81.712 140.103 81.712C143.175 81.712 144.471 82.864 144.471 85.84V90.688C144.471 92.128 144.543 93.112 144.735 94H142.143C142.023 93.352 141.975 92.608 141.975 91.984C141.567 93.376 140.295 94.288 138.615 94.288ZM137.991 90.592C137.967 91.72 138.543 92.368 139.623 92.368C140.943 92.368 141.831 91.384 141.831 89.776V88.144L140.031 88.504C138.711 88.768 137.991 89.392 137.991 90.592ZM150.053 76.6V94H147.413V76.6H150.053ZM155.912 76.6V94H153.272V76.6H155.912ZM163.379 94.288C160.427 94.288 158.363 92.584 158.363 88C158.363 83.488 160.451 81.712 163.283 81.712C166.283 81.712 167.963 83.656 167.963 87.04V88.576H161.027C161.075 91.048 161.819 92.176 163.427 92.176C164.555 92.176 165.371 91.576 165.635 90.064L167.915 90.76C167.507 93.064 165.755 94.288 163.379 94.288ZM161.027 86.872H165.299C165.299 84.4 164.579 83.512 163.259 83.512C162.011 83.512 161.075 84.208 161.027 86.872ZM172.9 84.808C173.356 83.08 174.388 81.712 176.164 81.712C176.26 81.712 176.332 81.712 176.452 81.736V84.424C176.308 84.424 176.164 84.4 175.972 84.4C174.988 84.4 174.34 84.784 173.884 85.336C173.188 86.152 173.092 87.352 173.092 88.528V94H170.452V82H172.9V84.808ZM179.154 98.8C178.842 98.8 178.482 98.776 178.074 98.704V96.496C178.41 96.568 178.65 96.568 178.866 96.568C180.066 96.568 180.738 95.992 181.098 94.744L181.314 93.976L177.402 82H180.306L182.346 89.752C182.514 90.4 182.586 90.928 182.634 91.528H182.706C182.754 90.952 182.85 90.4 182.994 89.776L184.842 82H187.602L183.834 94.864C182.946 97.792 181.458 98.8 179.154 98.8Z" fill="#403A34"/>
</svg>
