<svg width="310" height="170" viewBox="0 0 310 170" fill="none" xmlns="http://www.w3.org/2000/svg">
<rect x="0.5" y="58.5" width="308.5" height="53" fill="#B5ACA3" fill-opacity="0.2" stroke="#403A34"/>
<path d="M131.32 94.408C127.216 94.408 124.888 91.696 124.888 85.48C124.888 79.264 127.216 76.552 131.32 76.552C135.4 76.552 137.728 79.264 137.728 85.48C137.728 91.696 135.4 94.408 131.32 94.408ZM127.816 85.48C127.816 90.328 129.088 92.104 131.32 92.104C133.552 92.104 134.776 90.328 134.776 85.48C134.776 80.632 133.552 78.856 131.32 78.856C129.088 78.856 127.816 80.632 127.816 85.48ZM145.825 82V83.92H143.401V94H140.761V83.92H139.033V82H140.761V80.152C140.761 77.8 142.057 76.456 144.385 76.456C144.913 76.456 145.393 76.504 145.825 76.6V78.712C145.489 78.664 145.177 78.616 144.913 78.616C143.857 78.616 143.401 79.144 143.401 80.32V82H145.825ZM153.677 82V83.92H151.253V94H148.613V83.92H146.885V82H148.613V80.152C148.613 77.8 149.909 76.456 152.237 76.456C152.765 76.456 153.245 76.504 153.677 76.6V78.712C153.341 78.664 153.029 78.616 152.765 78.616C151.709 78.616 151.253 79.144 151.253 80.32V82H153.677ZM159.669 94.288C156.717 94.288 154.653 92.584 154.653 88C154.653 83.488 156.741 81.712 159.573 81.712C162.573 81.712 164.253 83.656 164.253 87.04V88.576H157.317C157.365 91.048 158.109 92.176 159.717 92.176C160.845 92.176 161.661 91.576 161.925 90.064L164.205 90.76C163.797 93.064 162.045 94.288 159.669 94.288ZM157.317 86.872H161.589C161.589 84.4 160.868 83.512 159.549 83.512C158.301 83.512 157.365 84.208 157.317 86.872ZM169.189 84.808C169.645 83.08 170.677 81.712 172.453 81.712C172.549 81.712 172.621 81.712 172.741 81.736V84.424C172.597 84.424 172.453 84.4 172.261 84.4C171.277 84.4 170.629 84.784 170.173 85.336C169.477 86.152 169.381 87.352 169.381 88.528V94H166.741V82H169.189V84.808ZM178.382 94.264C175.982 94.264 174.134 93.16 173.606 90.928L175.742 89.992C176.054 91.408 177.11 92.272 178.43 92.272C179.606 92.272 180.35 91.696 180.35 90.76C180.35 89.848 179.99 89.416 178.838 89.128L177.038 88.672C175.238 88.216 174.086 87.088 174.086 85.288C174.086 83.104 175.886 81.712 178.43 81.712C180.782 81.712 182.462 82.72 182.798 84.712L180.734 85.528C180.446 84.184 179.582 83.608 178.406 83.608C177.278 83.608 176.606 84.16 176.606 85.096C176.606 85.912 177.062 86.296 178.142 86.584L179.942 87.064C181.982 87.592 182.822 88.696 182.822 90.568C182.822 92.608 181.142 94.264 178.382 94.264Z" fill="#403A34"/>
</svg>
