<svg width="310" height="170" viewBox="0 0 310 170" fill="none" xmlns="http://www.w3.org/2000/svg">
<rect x="0.5" y="58.5" width="308.5" height="53" fill="#B5ACA3" fill-opacity="0.2" stroke="#403A34"/>
<path d="M116.752 94V76.96H122.128C125.968 76.96 127.432 78.976 127.432 81.928C127.432 84.136 126.472 85.816 124.576 86.488L127.84 94H124.768L121.816 86.968H119.56V94H116.752ZM119.56 85H121.816C123.688 85 124.432 83.824 124.432 81.928C124.432 80.032 123.712 79.024 121.792 79.024H119.56V85ZM133.958 94.288C131.006 94.288 128.942 92.584 128.942 88C128.942 83.488 131.03 81.712 133.862 81.712C136.862 81.712 138.542 83.656 138.542 87.04V88.576H131.606C131.654 91.048 132.398 92.176 134.006 92.176C135.134 92.176 135.95 91.576 136.214 90.064L138.494 90.76C138.086 93.064 136.334 94.288 133.958 94.288ZM131.606 86.872H135.878C135.878 84.4 135.158 83.512 133.838 83.512C132.59 83.512 131.654 84.208 131.606 86.872ZM142.884 94L139.356 82H142.14L143.94 89.632C144.108 90.28 144.228 90.88 144.3 91.48H144.396C144.468 90.88 144.588 90.28 144.732 89.632L146.556 82H149.34L145.812 94H142.884ZM151.108 94V82H153.724V94H151.108ZM150.988 80.056V77.104H153.82V80.056H150.988ZM161.192 94.288C158.24 94.288 156.176 92.584 156.176 88C156.176 83.488 158.264 81.712 161.096 81.712C164.096 81.712 165.776 83.656 165.776 87.04V88.576H158.84C158.888 91.048 159.632 92.176 161.24 92.176C162.368 92.176 163.184 91.576 163.448 90.064L165.728 90.76C165.32 93.064 163.568 94.288 161.192 94.288ZM158.84 86.872H163.112C163.112 84.4 162.392 83.512 161.072 83.512C159.824 83.512 158.888 84.208 158.84 86.872ZM169.566 94L166.83 82H169.446L170.886 90.16C170.958 90.568 171.006 91.024 171.054 91.48H171.102C171.15 91.024 171.246 90.568 171.318 90.16L172.926 82H175.494L177.126 90.16C177.198 90.568 177.27 91.024 177.318 91.48H177.366C177.414 91.024 177.462 90.568 177.534 90.16L178.974 82H181.59L178.854 94H176.07L174.414 85.984C174.342 85.552 174.27 84.928 174.246 84.544H174.174C174.15 84.928 174.078 85.552 174.006 85.984L172.35 94H169.566ZM187.242 94.264C184.842 94.264 182.994 93.16 182.466 90.928L184.602 89.992C184.914 91.408 185.97 92.272 187.29 92.272C188.466 92.272 189.21 91.696 189.21 90.76C189.21 89.848 188.85 89.416 187.698 89.128L185.898 88.672C184.098 88.216 182.946 87.088 182.946 85.288C182.946 83.104 184.746 81.712 187.29 81.712C189.642 81.712 191.322 82.72 191.658 84.712L189.594 85.528C189.306 84.184 188.442 83.608 187.266 83.608C186.138 83.608 185.465 84.16 185.465 85.096C185.465 85.912 185.922 86.296 187.002 86.584L188.802 87.064C190.842 87.592 191.682 88.696 191.682 90.568C191.682 92.608 190.002 94.264 187.242 94.264Z" fill="#403A34"/>
</svg>
