<svg width="182" height="90" viewBox="0 0 182 90" fill="none" xmlns="http://www.w3.org/2000/svg">
<rect x="1.5" y="1.5" width="179" height="87" rx="8.5" fill="white" stroke="#403A34" stroke-width="3"/>
<path d="M43.336 55V32.28H47.08V51.768H54.984V55H43.336ZM62.9412 55.544C57.4692 55.544 54.3652 51.928 54.3652 43.64C54.3652 35.352 57.4692 31.736 62.9412 31.736C68.3813 31.736 71.4853 35.352 71.4853 43.64C71.4853 51.928 68.3813 55.544 62.9412 55.544ZM58.2692 43.64C58.2692 50.104 59.9653 52.472 62.9412 52.472C65.9173 52.472 67.5493 50.104 67.5493 43.64C67.5493 37.176 65.9173 34.808 62.9412 34.808C59.9653 34.808 58.2692 37.176 58.2692 43.64ZM79.8165 55.544C74.9205 55.544 72.2965 51.576 72.2965 43.544C72.2965 35.448 75.3045 31.736 80.8085 31.736C85.9285 31.736 88.2005 34.808 88.4885 38.936L84.6805 39.608C84.4565 36.696 83.4965 34.68 80.7445 34.68C77.7365 34.68 76.2005 37.144 76.2005 43.544C76.2005 49.72 77.6085 52.536 80.8085 52.536C84.1045 52.536 85.0005 49.752 85.0005 46.584V45.688H80.4885V42.744H88.6165V55H85.8325L85.6405 51.288C84.8405 53.912 82.8565 55.544 79.8165 55.544ZM98.335 55.544C92.863 55.544 89.759 51.928 89.759 43.64C89.759 35.352 92.863 31.736 98.335 31.736C103.775 31.736 106.879 35.352 106.879 43.64C106.879 51.928 103.775 55.544 98.335 55.544ZM93.663 43.64C93.663 50.104 95.359 52.472 98.335 52.472C101.311 52.472 102.943 50.104 102.943 43.64C102.943 37.176 101.311 34.808 98.335 34.808C95.359 34.808 93.663 37.176 93.663 43.64ZM108.586 32.28H112.33V48.216C112.33 50.776 113.706 52.376 116.138 52.376C118.57 52.376 119.946 50.776 119.946 48.216V32.28H123.69V48.408C123.69 52.696 120.97 55.544 116.138 55.544C111.306 55.544 108.586 52.696 108.586 48.408V32.28ZM124.444 35.448V32.28H139.548V35.448H133.884V55H130.14V35.448H124.444Z" fill="#403A34"/>
</svg>
