<svg width="104" height="96" viewBox="0 0 104 96" fill="none" xmlns="http://www.w3.org/2000/svg">
<path d="M50.106 1.58199C50.7201 -0.227862 53.2799 -0.22786 53.894 1.58199L64.7858 33.6831C65.0611 34.4946 65.8228 35.0405 66.6797 35.0405L101.736 35.0405C103.694 35.0405 104.486 37.5638 102.878 38.6823L74.6682 58.3095C73.9367 58.8185 73.6302 59.75 73.9165 60.5939L84.7265 92.454C85.3466 94.2815 83.2744 95.8405 81.6903 94.7383L53.1422 74.8758C52.4557 74.3981 51.5443 74.3981 50.8578 74.8758L22.3097 94.7383C20.7256 95.8405 18.6534 94.2815 19.2735 92.454L30.0835 60.5939C30.3698 59.75 30.0633 58.8185 29.3318 58.3095L1.12186 38.6823C-0.48568 37.5638 0.305758 35.0405 2.26411 35.0405L37.3203 35.0405C38.1772 35.0405 38.9389 34.4946 39.2142 33.6832L50.106 1.58199Z" fill="#403A34"/>
</svg>
